<?xml version="1.0" encoding="UTF-8"?>
<!DOCTYPE svg PUBLIC "-//W3C//DTD SVG 1.1//EN" "http://www.w3.org/Graphics/SVG/1.1/DTD/svg11.dtd">
<svg xmlns="http://www.w3.org/2000/svg" version="1.1" width="240px" height="240px" style="shape-rendering:geometricPrecision; text-rendering:geometricPrecision; image-rendering:optimizeQuality; fill-rule:evenodd; clip-rule:evenodd" xmlns:xlink="http://www.w3.org/1999/xlink">
<g><path style="opacity:1" fill="#13caf0" d="M 7.5,-0.5 C 82.1667,-0.5 156.833,-0.5 231.5,-0.5C 235.167,1.16667 237.833,3.83333 239.5,7.5C 239.5,82.1667 239.5,156.833 239.5,231.5C 237.833,235.167 235.167,237.833 231.5,239.5C 156.833,239.5 82.1667,239.5 7.5,239.5C 3.83333,237.833 1.16667,235.167 -0.5,231.5C -0.5,156.833 -0.5,82.1667 -0.5,7.5C 1.16667,3.83333 3.83333,1.16667 7.5,-0.5 Z"/></g>
<g><path style="opacity:1" fill="#fefefe" d="M 117.5,58.5 C 129.505,58.3335 141.505,58.5001 153.5,59C 167.942,63.8104 175.109,73.977 175,89.5C 175.333,112.167 175.667,134.833 176,157.5C 179.405,162.795 182.905,162.795 186.5,157.5C 187.331,150.524 187.831,143.524 188,136.5C 189.908,132.51 192.908,131.51 197,133.5C 198.477,134.444 199.477,135.777 200,137.5C 200.667,144.167 200.667,150.833 200,157.5C 196.153,170.178 187.653,175.345 174.5,173C 168.728,170.894 164.562,167.061 162,161.5C 160.803,153.562 160.136,145.562 160,137.5C 155.255,132.257 150.588,132.257 146,137.5C 145.667,151.833 145.333,166.167 145,180.5C 144.626,181.416 144.126,182.25 143.5,183C 132.775,182.809 122.108,181.809 111.5,180C 110.874,179.25 110.374,178.416 110,177.5C 109.832,167.151 109.332,156.817 108.5,146.5C 98.5307,145.192 88.5307,145.192 78.5,146.5C 77.6908,156.453 77.1908,166.453 77,176.5C 76.1667,177.333 75.3333,178.167 74.5,179C 65.1276,179.84 55.7942,181.006 46.5,182.5C 44.3066,182.674 42.4733,182.007 41,180.5C 40.3333,151.833 40.3333,123.167 41,94.5C 43.9366,83.2301 51.1032,76.3968 62.5,74C 74.9316,71.7029 87.2649,69.8695 99.5,68.5C 98.7565,71.443 98.2565,74.443 98,77.5C 97.3333,90.5 97.3333,103.5 98,116.5C 100.022,120.529 103.188,123.029 107.5,124C 127.331,125.966 134.331,117.133 128.5,97.5C 126.856,97.2865 125.356,97.6198 124,98.5C 123.667,104.5 123.333,110.5 123,116.5C 116.667,120.5 110.333,120.5 104,116.5C 103.333,100.833 103.333,85.1667 104,69.5C 106.584,63.4108 111.084,59.7441 117.5,58.5 Z"/></g>
<g><path style="opacity:1" fill="#38baec" d="M 149.5,78.5 C 157.07,77.1643 160.903,80.1643 161,87.5C 160.282,88.4506 159.449,88.6172 158.5,88C 157.395,83.2935 154.395,81.2935 149.5,82C 148.316,80.8545 148.316,79.6879 149.5,78.5 Z"/></g>
</svg>
